<svg xmlns="http://www.w3.org/2000/svg" viewBox="0 0 512 512" role="img" aria-labelledby="title desc">
  <title id="title">DENTA TIRTA</title>
  <desc id="desc">Ikon aplikasi DENTA TIRTA dengan tetesan air biru dan huruf DT.</desc>
  <defs>
    <linearGradient id="bg" x1="0" y1="0" x2="1" y2="1">
      <stop offset="0%" stop-color="#2563eb"/>
      <stop offset="100%" stop-color="#1d4ed8"/>
    </linearGradient>
    <linearGradient id="drop" x1="0" y1="0" x2="0" y2="1">
      <stop offset="0%" stop-color="#dbeafe"/>
      <stop offset="100%" stop-color="#93c5fd"/>
    </linearGradient>
  </defs>
  <rect x="24" y="24" width="464" height="464" rx="112" fill="url(#bg)"/>
  <path d="M256 108c-48 62-116 128-116 208 0 63.96 52.04 116 116 116s116-52.04 116-116c0-80-68-146-116-208z" fill="url(#drop)"/>
  <path d="M256 148c-36 47-86 98-86 159 0 47.5 38.5 86 86 86s86-38.5 86-86c0-61-50-112-86-159z" fill="#eff6ff" opacity="0.95"/>
  <text x="256" y="328" text-anchor="middle" font-size="102" font-family="Arial, Helvetica, sans-serif" font-weight="800" fill="#1d4ed8">DT</text>
</svg>
