<svg xmlns="http://www.w3.org/2000/svg" viewBox="0 0 720 220" role="img" aria-labelledby="title desc">
  <title id="title">Logo DENTA TIRTA</title>
  <desc id="desc">Logo DENTA TIRTA dengan ikon tetesan air dan wordmark modern.</desc>
  <defs>
    <linearGradient id="dropBg" x1="0" y1="0" x2="1" y2="1">
      <stop offset="0%" stop-color="#2563eb"/>
      <stop offset="100%" stop-color="#1d4ed8"/>
    </linearGradient>
    <linearGradient id="dropFill" x1="0" y1="0" x2="0" y2="1">
      <stop offset="0%" stop-color="#dbeafe"/>
      <stop offset="100%" stop-color="#93c5fd"/>
    </linearGradient>
  </defs>
  <g transform="translate(18 18)">
    <rect width="184" height="184" rx="44" fill="url(#dropBg)"/>
    <path d="M92 28c-24 34-54 64-54 106 0 29.823 24.177 54 54 54s54-24.177 54-54c0-42-30-72-54-106z" fill="url(#dropFill)"/>
    <path d="M92 52c-18 26-39 49-39 81 0 21.539 17.461 39 39 39s39-17.461 39-39c0-32-21-55-39-81z" fill="#eff6ff" opacity="0.96"/>
    <text x="92" y="132" text-anchor="middle" font-size="46" font-family="Arial, Helvetica, sans-serif" font-weight="800" fill="#1d4ed8">DT</text>
  </g>
  <g transform="translate(236 56)">
    <text x="0" y="52" font-size="58" font-family="Arial, Helvetica, sans-serif" font-weight="900" fill="#0f172a" letter-spacing="2">DENTA</text>
    <text x="0" y="116" font-size="64" font-family="Arial, Helvetica, sans-serif" font-weight="900" fill="#2563eb" letter-spacing="3">TIRTA</text>
    <rect x="0" y="138" width="270" height="12" rx="6" fill="#bfdbfe"/>
    <text x="0" y="176" font-size="24" font-family="Arial, Helvetica, sans-serif" font-weight="700" fill="#475569" letter-spacing="2">SMART WATER BILLING</text>
  </g>
</svg>
